# xmcd
#
# Track frame offsets: 
#        150
#        11027
#        22917
#        35585
#        49280
#        60975
#        80190
#        94757
#        111397
#        125137
#        134657
#        147937
#        166432
#        182350
#
# Disc length: 2585 seconds
#
# Revision: 1
# Processed by: cddbd v1.5.2PL0 Copyright (c) Steve Scherf et al.
# Submitted via: ExactAudioCopy v0.99pb3
#
DISCID=c70a170e
DTITLE=Liu e Leu - Luar do Sertao
DYEAR=1997
DGENRE=Sertanejo
TTITLE0=A Boiada
TTITLE1=Rosa Morena
TTITLE2=Buscando a Felicidade
TTITLE3=O Menino da Porteira
TTITLE4=Mulher e Viola
TTITLE5=Sao Goncalo do Amarante
TTITLE6=A Dona do Pangare
TTITLE7=Cao Fidalgo
TTITLE8=Cusco do Pago
TTITLE9=Escola da Vida
TTITLE10=Minha Terra
TTITLE11=Fazenda Campo Alegre
TTITLE12=Noivado Desfeito
TTITLE13=Um Tostao de Chuva
EXTD=
EXTT0=
EXTT1=
EXTT2=
EXTT3=
EXTT4=
EXTT5=
EXTT6=
EXTT7=
EXTT8=
EXTT9=
EXTT10=
EXTT11=
EXTT12=
EXTT13=
PLAYORDER=
